<svg height="496pt" viewBox="0 0 496 496" width="496pt" xmlns="http://www.w3.org/2000/svg"><path d="m264 240v-200h-256v448h352v-248zm0 0" fill="#e6e9ed"/><path d="m109.335938 264h26.664062v80h-96v-80zm0 0" fill="#ff826e"/><path d="m120 40h-80v212.839844l48 72 48-72v-212.839844zm0 0" fill="#ccd1d9"/><path d="m88 324.839844 40.558594-60.839844h-81.117188zm0 0" fill="#fc6e51"/><path d="m56 24v224l32 48 32-48v-224c0-8.839844-7.167969-16-16-16h-32c-8.839844 0-16 7.160156-16 16zm0 0" fill="#dfb28b"/><path d="m104 8h-32c-8.839844 0-16 7.160156-16 16v48h64v-48c0-8.839844-7.167969-16-16-16zm0 0" fill="#e6e9ed"/><path d="m56 72h64v32h-64zm0 0" fill="#fcd770"/><path d="m88 104h32v144h-32zm0 0" fill="#b4dd7f"/><path d="m56 104h32v144h-32zm0 0" fill="#fcd770"/><path d="m264 240v-200h-34.273438l-24.613281 24.617188 16.613281 28.046874c-2.335937 4.808594-4.375 9.761719-6.132812 14.824219l-31.59375 8.085938v72.839843l31.59375 8.089844c1.757812 5.070313 3.796875 10.023438 6.132812 14.832032l-16.613281 28.046874 51.503907 51.503907 28.046874-16.613281c4.800782 2.328124 9.75 4.375 14.824219 6.125l8.085938 31.601562h52.425781v-72zm0 0" fill="#ccd1d9"/><path d="m488 176v-48l-28.246094-7.230469c-2.722656-10.113281-6.699218-19.691406-11.808594-28.554687l14.847657-25.0625-33.945313-33.953125-25.0625 14.847656c-8.863281-5.109375-18.449218-9.085937-28.554687-11.808594l-7.230469-28.238281h-48l-7.230469 28.246094c-10.113281 2.722656-19.691406 6.699218-28.554687 11.808594l-25.0625-14.855469-33.953125 33.953125 14.847656 25.0625c-5.109375 8.863281-9.085937 18.449218-11.808594 28.554687l-28.238281 7.230469v48l28.246094 7.230469c2.722656 10.113281 6.699218 19.691406 11.808594 28.554687l-14.847657 25.0625 33.945313 33.945313 25.0625-14.847657c8.863281 5.109376 18.449218 9.078126 28.554687 11.808594l7.230469 28.246094h48l7.230469-28.246094c10.113281-2.730468 19.691406-6.699218 28.554687-11.808594l25.0625 14.847657 33.945313-33.945313-14.847657-25.0625c5.109376-8.863281 9.085938-18.449218 11.808594-28.554687zm-144 32c-30.929688 0-56-25.070312-56-56s25.070312-56 56-56 56 25.070312 56 56-25.070312 56-56 56zm0 0" fill="#ffeaa7"/><path d="m488 176v-48l-28.246094-7.230469c-2.722656-10.113281-6.699218-19.691406-11.808594-28.554687l14.847657-25.0625-33.945313-33.953125-25.0625 14.847656c-8.863281-5.109375-18.449218-9.085937-28.554687-11.808594l-7.230469-28.238281h-48l-7.230469 28.246094c-10.113281 2.722656-19.691406 6.699218-28.554687 11.808594l-25.0625-14.855469-33.953125 33.953125 14.847656 25.0625c-5.109375 8.863281-9.085937 18.449218-11.808594 28.554687l-28.238281 7.230469v48l28.246094 7.230469c2.722656 10.113281 6.699218 19.691406 11.808594 28.554687l-14.847657 25.0625 33.945313 33.945313 25.0625-14.847657c8.863281 5.109376 18.449218 9.078126 28.554687 11.808594l7.230469 28.246094h48l7.230469-28.246094c10.113281-2.730468 19.691406-6.699218 28.554687-11.808594l25.0625 14.847657 33.945313-33.945313-14.847657-25.0625c5.109376-8.863281 9.085938-18.449218 11.808594-28.554687zm-144 64c-48.601562 0-88-39.398438-88-88s39.398438-88 88-88 88 39.398438 88 88-39.398438 88-88 88zm0 0" fill="#ffc729"/><path d="m40 376h96v80h-96zm0 0" fill="#ff826e"/><path d="m496 182.207031v-60.421875l-29.832031-7.640625c-2.335938-7.558593-5.359375-14.863281-9.007813-21.792969l15.6875-26.480468-42.726562-42.726563-26.480469 15.6875c-6.9375-3.664062-14.234375-6.679687-21.792969-9.007812l-7.640625-29.824219h-60.421875l-7.640625 29.832031c-7.550781 2.328125-14.847656 5.34375-21.792969 9.007813l-26.480468-15.6875-8.832032 8.847656h-121.039062v-8c0-13.230469-10.769531-24-24-24h-32c-13.230469 0-24 10.769531-24 24v8h-48v464h368v-192h6.207031l7.640625-29.832031c7.558594-2.335938 14.863282-5.359375 21.792969-9.007813l26.480469 15.6875 42.726562-42.726562-15.6875-26.480469c3.648438-6.921875 6.671875-14.226563 9.007813-21.792969zm-384 57.792969h-16v-128h16zm-48-128h16v128h-16zm41.054688 144-17.054688 25.574219-17.054688-25.574219zm6.945312-160h-48v-16h48zm-24 214.425781 25.617188-38.425781h14.382812v64h-80v-64h14.382812zm-16-294.425781h32c4.414062 0 8 3.585938 8 8v40h-48v-40c0-4.414062 3.585938-8 8-8zm280 464h-336v-432h32v202.425781l3.71875 5.574219h-19.71875v96h112v-96h-19.71875l3.71875-5.574219v-202.425781h105.039062l-17.878906 17.878906 15.6875 26.480469c-3.664062 6.9375-6.679687 14.234375-9.007812 21.792969l-29.839844 7.640625v60.421875l29.832031 7.640625c2.328125 7.550781 5.34375 14.847656 9.007813 21.792969l-15.6875 26.480468 42.726562 42.726563 26.480469-15.6875c6.921875 3.648437 14.226563 6.671875 21.792969 9.007812l7.640625 29.824219h38.207031zm101.238281-303.359375-1.214843 4.503906c-2.527344 9.398438-6.230469 18.359375-11.007813 26.648438l-2.335937 4.046875 14.074218 23.746094-25.167968 25.167968-23.746094-14.074218-4.046875 2.335937c-8.289063 4.777344-17.25 8.480469-26.648438 11.007813l-4.503906 1.214843-6.847656 26.761719h-35.578125l-6.847656-26.761719-4.503907-1.214843c-9.398437-2.527344-18.359375-6.230469-26.648437-11.007813l-4.046875-2.335937-23.742188 14.074218-25.167969-25.167968 14.070313-23.746094-2.335937-4.046875c-4.785157-8.3125-8.496094-17.273438-11.007813-26.640625l-1.207031-4.511719-26.777344-6.847656v-35.578125l26.769531-6.847656 1.207031-4.511719c2.511719-9.367188 6.222657-18.328125 11.007813-26.640625l2.335937-4.046875-14.074218-23.742188 25.167968-25.167969 23.746094 14.070313 4.046875-2.335937c8.3125-4.785157 17.273438-8.496094 26.640625-11.007813l4.511719-1.207031 6.847656-26.777344h35.578125l6.847656 26.769531 4.511719 1.207031c9.367188 2.511719 18.328125 6.222657 26.640625 11.007813l4.046875 2.335937 23.742188-14.074218 25.167969 25.167968-14.070313 23.746094 2.335937 4.046875c4.777344 8.289063 8.480469 17.25 11.007813 26.648438l1.214844 4.503906 26.769531 6.847656v35.578125zm0 0"/><path d="m344 56c-52.9375 0-96 43.0625-96 96s43.0625 96 96 96 96-43.0625 96-96-43.0625-96-96-96zm0 176c-44.113281 0-80-35.886719-80-80s35.886719-80 80-80 80 35.886719 80 80-35.886719 80-80 80zm0 0"/><path d="m344 88c-35.289062 0-64 28.710938-64 64s28.710938 64 64 64 64-28.710938 64-64-28.710938-64-64-64zm0 112c-26.472656 0-48-21.527344-48-48s21.527344-48 48-48 48 21.527344 48 48-21.527344 48-48 48zm0 0"/><path d="m146.34375 354.34375-13.65625 13.65625h-100.6875v96h112v-84.6875l13.65625-13.65625zm-18.34375 93.65625h-80v-64h68.6875l-36.6875 36.6875-10.34375-10.34375-11.3125 11.3125 21.65625 21.65625 48-48zm0 0"/><path d="m320 448h16v16h-16zm0 0"/><path d="m160 448h144v16h-144zm0 0"/><path d="m160 416h176v16h-176zm0 0"/><path d="m160 384h176v16h-176zm0 0"/><path d="m160 336h144v16h-144zm0 0"/><path d="m160 304h144v16h-144zm0 0"/><path d="m160 272h64v16h-64zm0 0"/></svg>